<svg xmlns="http://www.w3.org/2000/svg" xmlns:xlink="http://www.w3.org/1999/xlink" viewBox="0 0 450 419.85"><defs><style>.cls-1{fill:url(#linear-gradient);}.cls-2{fill:#00095b;}.cls-10,.cls-11,.cls-12,.cls-2,.cls-3,.cls-4,.cls-6,.cls-7,.cls-8,.cls-9{fill-rule:evenodd;}.cls-3{fill:#c6a073;}.cls-13,.cls-4{fill:#f63;}.cls-5{mask:url(#mask);}.cls-6{fill:#fff;}.cls-8{fill:#a38764;}.cls-9{fill:#020736;}.cls-10{fill:#5b00cc;}.cls-11{fill:#fc0;}.cls-12{fill:#cca300;}</style><linearGradient id="linear-gradient" x1="-882.73" y1="1283.47" x2="-892.12" y2="1308.33" gradientTransform="translate(1147.72 -1181.15)" gradientUnits="userSpaceOnUse"><stop offset="0" stop-color="#fff"/><stop offset="1"/></linearGradient><mask id="mask" x="213.33" y="102.21" width="85.51" height="47.43" maskUnits="userSpaceOnUse"><rect class="cls-1" x="213.33" y="102.21" width="85.51" height="47.43"/></mask></defs><g id="Layer_2" data-name="Layer 2"><g id="Layer_1-2" data-name="Layer 1"><path class="cls-2" d="M223.2,132.38h0l-.08,0-.08,0h0l-.07,0-.08,0-.25-.11-.08,0h0l-.06,0-.08,0h0l0,0-.08,0h0l0,0-.08,0,0,0,0,0-.07,0-.08,0-.08,0-.06,0h0l-.08,0-.06,0h0l-.08,0-.06,0h0l-.08-.05-.07,0h0l-.07,0-.16-.08-.07-.05h0l-.07,0-.07,0h0l-.07,0-.07,0h0l-.06,0-.07,0h0l-.06,0-.07,0,0,0-.06,0-.07,0,0,0,0,0-.07,0,0,0,0,0-.07-.05,0,0,0,0-.07,0,0,0,0,0-.07,0-.05,0h0l-.07-.05,0,0,0,0-.07,0-.06,0h0l-.07,0-.06,0h0L219,130l-.06,0h0l-.07,0-.07,0a115.49,115.49,0,0,1-14.46-12.05l2.56-6.19L190,103.13h0a71.84,71.84,0,0,0-9.42,36.14,61.39,61.39,0,0,0,12.88,37.26l1.95,2.51L193,181.17A23.62,23.62,0,0,1,182,186.9a28.9,28.9,0,0,1-12.64-.36l-.77-.28c-11.72-6-19.62-21.07-26.79-36.73h28.1a5.49,5.49,0,0,0,0-11H87.61a5.49,5.49,0,0,0,0,11h29.71c-2.28,5.34-1.34,13.25,1.3,28C121,191,126.08,202,133.42,210.1a46.77,46.77,0,0,0,27.94,14.84c6.31.9,7.26,6.39,6.25,13.68-.44,3.16-1.23,6.6-2,10.09a169.51,169.51,0,0,0-4.73,36.5A144.44,144.44,0,0,0,224.69,300q3.23,0,6.4-.14a145.63,145.63,0,0,0,15.74-1.54,143.27,143.27,0,0,0,18.71-4.17c-11.69-9.62-29.85-10-44.56-1.33,10.53-12.81,30.39-15,44.32-7.45a33.33,33.33,0,0,1,8.19,6.2A146.06,146.06,0,0,0,304,276.44c-5.29-11.5-21.09-32.35-8.42-21a68.39,68.39,0,0,0,27.06,11.17c9.24,1.75,18.65,2,28,2.22,12.61-1.87,19.63-7.07,22.49-13.26a17.72,17.72,0,0,0,1.49-9.18,22.69,22.69,0,0,0-3.12-9.33A24.1,24.1,0,0,0,350.86,225l-.05,0c-30.73-.51-42.44,2.12-66.57-22.87l-3.57-3.71,4.76-1.85c13.43-5.22,21.2-12.83,26.06-21.93a69.26,69.26,0,0,0,5.87-16.08l-18-6.49-2.31,5.58a113.59,113.59,0,0,1-18.57-2.13h-.08l-.09,0h0l-.08,0-.08,0h0l-.09,0H278l-.09,0-.08,0h0l-.09,0-.08,0h0l-.09,0-.07,0h0l-.09,0-.08,0h0l-.08,0-.08,0h0l-.09,0-.07,0h0l-.09,0h-.09l-.09,0-.07,0h0l-.09,0h-.09l-.09,0-.07,0h0l-.09,0-.07,0h0l-.09,0-.07,0h0l-.09,0h-.08l-.09,0-.07,0h0l-.09,0-.06,0h0l-.08,0-.06,0h0l-.09,0-.06,0h0l-.09,0-.05,0h0l-.09,0-.06,0h0l-.09,0-.05,0,0,0-.09,0,0,0h0l-.08,0-.05,0h0l-.09,0H274l0,0-.09,0h-.05l0,0-.09,0,0,0,0,0-.09,0,0,0,0,0h0a37.43,37.43,0,0,1,.6,8.7c-1.3,30.65-52.47,14.29-59.13-7.5-3.27-10.72.89-18.43,8.28-22.76"/><path class="cls-3" d="M214.92,155.14c6.66,21.79,57.83,38.15,59.13,7.5C276,117,204,119.36,214.92,155.14"/><path class="cls-2" d="M236,128.73c11-1.13,23.59,2.62,31,11.87-.94-9-.74-19.08-8.61-22.45-8.31-3.57-15.21,4.79-22.44,10.58m83.2,21.4q.72-3.78,1.36-7.67l1.31-2.15,9.24-7c6.56-5,8-13.39,6.25-21.47a34.17,34.17,0,0,0-4.22-10.38,27.93,27.93,0,0,0-7.05-7.86c-5.08-3.74-11.37-4.87-17.72-1.12l-7.4,4.38-1.82-2c-7-7.7-16.05-13.06-25.79-16.5a91.38,91.38,0,0,0-35-4.79l-1.57.09-8.57-9.49c-5.49-6.09-12.28-7.89-18.69-6.85a25.75,25.75,0,0,0-10.71,4.53,27.68,27.68,0,0,0-7.94,8.72c-3.32,5.83-4.2,12.87-.84,19.6l3.58,7.16-.5-1,18.78,3.14h0l2.06-5c32.4-.39,71.36,13.77,93.15,38.77l-2.27,5.48Z"/><path class="cls-4" d="M216.63,98.57,214.38,104,196.06,101l-.23.35-.12.17L212,109.66l-2.94,7.11a108.84,108.84,0,0,0,12,9.72c1.56,1.09,4.92,3.3,6.92,2.51,3.22-1.27,6.57-4.3,9.18-6.57,6.46-5.63,13.79-11.91,22.82-8a14.53,14.53,0,0,1,5.7,4.34c3.88,4.87,4.47,11.79,5,17.82.31,3.59.6,8.3,2,11.63.85,2,4.75,2.91,6.6,3.29a104.65,104.65,0,0,0,15.18,1.92l2.69-6.5,17.34,6.26c.1-.45.19-.9.28-1.35L300,140l2.46-6c-20.7-22.29-56-35.13-85.8-35.51"/><g class="cls-5"><path class="cls-6" d="M263.6,112.24a17.92,17.92,0,0,1,4.81,4.23c4.44,5.58,5.17,12.87,5.77,19.76.27,3.08.5,7.43,1.65,10.33.77.64,3.28,1.22,4.13,1.39a98.74,98.74,0,0,0,12.21,1.69l3-7.27,3.66,1.32-3.16-2.51,2.6-6.3c-9.37-9.51-21.53-17.15-34.68-22.64m-44.65-10-2.4,5.81h0l-3.22,7.78a98.83,98.83,0,0,0,9.71,7.73,14,14,0,0,0,3.86,2c2.7-1.14,5.77-4,8-5.87,6.7-5.84,13.93-11.57,22.74-9.8A128.93,128.93,0,0,0,219,102.21Z"/></g><path class="cls-2" d="M195.71,101.47l9.14,4.58,1.4-3.39L196.06,101l-.23.35-.12.17m109,48.15,9.78,3.53c.1-.45.19-.9.28-1.35l-8.25-6.56Z"/><path class="cls-7" d="M260.66,145.35c.93-5.42-4-9.32-8.69-11.58-3.91-1.87-10.95-1.72-13.64,1.2-3.52,3.82,0,9.82,5.24,13.06,6.59,4.13,15.95,4,17.09-2.68"/><path class="cls-7" d="M254.21,164.78c-11.71,1.74-19.94-4.39-25.21-12.57,4.57,13.67,12.64,17.18,25.21,12.57"/><path class="cls-4" d="M76.92,133.24H150.7c.64-16-4.78-29.22-14.92-42,18.52,7.81,28.66,19.25,29.34,42h10.12c0-25-19.08-45.49-43.23-47.16a5.33,5.33,0,0,0,2-4.18,5.2,5.2,0,1,0-10.4,0,5.32,5.32,0,0,0,2,4.18,46.36,46.36,0,0,0-37.54,24.48H84.17a2.27,2.27,0,0,0,0,4.54h20.54a2.27,2.27,0,0,1,0,4.54H83a2.27,2.27,0,0,0,0,4.53h37.17a2.27,2.27,0,0,1,0,4.54H76.92a2.27,2.27,0,0,0,0,4.53"/><path class="cls-6" d="M79.76,128.71h24.95a2.27,2.27,0,0,0,0-4.54H79.76a2.27,2.27,0,0,0,0,4.54"/><path class="cls-8" d="M258.28,178.39c-15.37-.92-34.11-11.71-38-24.32-4.15-13.56,3.63-22.32,14.78-25.49a30.86,30.86,0,0,0-11.9,3.8c-7.38,4.33-11.54,12.05-8.27,22.76,4.77,15.58,32.3,28.39,48.07,23.21a32.08,32.08,0,0,1-4.71,0"/><path class="cls-9" d="M187.69,107.45l12.83,6.44-1.93,5.78a160.61,160.61,0,0,0,17.07,14.09l.07,0,.07,0,.06.05.08,0,.06,0,.07,0h0l.06,0,.07,0h0l.05,0,.07,0,0,0,0,0,.07,0,0,0,0,0,.07,0,0,0,0,0,.07,0,0,0,0,0,.07,0,0,0,0,0,.07.05.06,0h0l.07.05.06,0h0l.07,0,.06,0h0l.07,0,.08,0,.07,0,.08,0,.07,0,.16.09.08.05.07,0,.08,0h0l.07,0,.07,0h0l.06,0,.08,0,0,0,.06,0,.08.05.08,0,.07,0h0a21.51,21.51,0,0,1,4.35-3.33h0l-.08,0-.08,0h0l-.07,0-.08,0-.25-.11-.08,0h0l-.06,0-.08,0h0l0,0-.08,0h0l0,0-.08,0,0,0,0,0-.08,0-.07,0-.08,0-.06,0h0l-.08,0-.06,0h0l-.08,0-.06,0h0l-.08-.05-.08,0-.07,0-.16-.08-.08-.05-.07,0-.08,0-.07,0-.07,0h0l-.06,0-.07,0h0l-.06,0-.07,0,0,0-.06,0-.07,0,0,0,0,0-.07,0,0,0,0,0-.07-.05,0,0,0,0-.07,0,0,0,0,0-.07,0-.05,0h0l-.07-.05,0,0,0,0-.07,0-.06,0h0l-.07,0-.07,0L219,130l-.06-.05-.07,0-.07,0a115.49,115.49,0,0,1-14.46-12.05l2.56-6.19L190,103.13q-1.2,2.1-2.28,4.32"/><path class="cls-10" d="M328.83,43.93a145.4,145.4,0,0,0-208.28,0,150.4,150.4,0,0,0-37.4,64.5h2.43a49.9,49.9,0,0,1,28.29-23.84h0a130.34,130.34,0,0,1,20.27-26.82,126.41,126.41,0,0,1,181.11,0,132.29,132.29,0,0,1,14.49,166.86c6.07.27,12.9.19,21.07.32h.05c.47,0,.94,0,1.4,0A152.21,152.21,0,0,0,328.83,43.93ZM134.14,242.23A131.21,131.21,0,0,1,96.63,150v-.47h-9a5.49,5.49,0,0,1,0-11h9.49c.15-1.78.34-3.56.56-5.32H78.32a154.63,154.63,0,0,0-.9,16.76,151,151,0,0,0,43.13,106.07,148,148,0,0,0,40.29,29.14,148.05,148.05,0,0,1,1.77-21.09A128.78,128.78,0,0,1,134.14,242.23Z"/><path class="cls-6" d="M150.7,133.24h14.42c-.68-22.72-10.82-34.16-29.34-42,10.14,12.75,15.57,26,14.92,42"/><path class="cls-11" d="M167.61,238.62c1-7.29.06-12.78-6.25-13.68a46.77,46.77,0,0,1-27.94-14.84c-7.34-8.07-12.4-19.1-14.8-32.55-2.64-14.77-3.58-22.68-1.3-28H96.63V150a131.25,131.25,0,0,0,37.5,92.23,129.07,129.07,0,0,0,28.48,21.89c.79-5.17,1.8-10.32,3-15.41.8-3.49,1.59-6.93,2-10.09M132,86.08c24.15,1.67,43.23,22.15,43.23,47.16H97.67c-.22,1.76-.41,3.53-.56,5.32h72.74a5.49,5.49,0,0,1,0,11h-28.1c7.17,15.66,15.07,30.68,26.79,36.73l.77.28a28.9,28.9,0,0,0,12.64.36A23.62,23.62,0,0,0,193,181.17l2.36-2.13-1.95-2.51a61.39,61.39,0,0,1-12.88-37.26,71.63,71.63,0,0,1,7.14-31.82q1.08-2.22,2.28-4.32l3.16-6.8-3.08-6.16c-3.36-6.73-2.48-13.77.84-19.6a27.56,27.56,0,0,1,7.94-8.72,25.75,25.75,0,0,1,10.71-4.53c6.41-1,13.2.76,18.7,6.85l8.56,9.49,1.57-.09a91.38,91.38,0,0,1,35,4.79c9.74,3.44,18.79,8.8,25.79,16.5l1.82,2,7.4-4.38c6.35-3.75,12.64-2.61,17.72,1.12a28.08,28.08,0,0,1,7.05,7.86,34.17,34.17,0,0,1,4.22,10.38c1.78,8.08.31,16.5-6.25,21.47l-9.24,7-1.31,2.15q-.64,3.89-1.36,7.67l-1.81,8.38a69.26,69.26,0,0,1-5.87,16.08c-4.86,9.1-12.63,16.71-26.06,21.93l-4.76,1.85,3.57,3.71c17.71,18.35,28.73,21.81,45.5,22.55A132.29,132.29,0,0,0,315.25,57.77a126.42,126.42,0,0,0-181.12,0,130.85,130.85,0,0,0-22.92,31.72,45.35,45.35,0,0,1,14.41-3.41,5.32,5.32,0,0,1-2-4.18,5.2,5.2,0,1,1,10.4,0A5.33,5.33,0,0,1,132,86.08Z"/><path class="cls-12" d="M321.89,176.22c7.05-13.19,4.43-16.77,6.55-29.5l1.31-2.15,9.24-7c6.56-5,8-13.39,6.25-21.47A34.07,34.07,0,0,0,341,105.71a28,28,0,0,0-7-7.86,17.57,17.57,0,0,0-6.39-3,29.3,29.3,0,0,1,5.53,6.64,34.17,34.17,0,0,1,4.22,10.38c1.78,8.08.31,16.5-6.25,21.47l-9.24,7-1.31,2.15q-.64,3.89-1.36,7.67l-2.1,9.54a67.27,67.27,0,0,1-5.58,14.92c-4.86,9.1-12.63,16.71-26.06,21.93l-4.76,1.85,3.57,3.71c16.24,16.82,26.86,21.13,41.44,22.3-9.87-2.5-18.88-8.08-31-20.67L291.07,200l4.76-1.84c13.44-5.23,21.2-12.84,26.06-21.94"/><path class="cls-12" d="M165.58,248.71c.8-3.49,1.59-6.93,2-10.09,1-7.29.06-12.78-6.25-13.68a46.77,46.77,0,0,1-27.94-14.84c-7.34-8.07-12.4-19.1-14.8-32.55-2.64-14.77-3.58-22.68-1.3-28H96.63V150c0,1.21,0,2.41,0,3.61h14.25c-2.29,5.34-1.34,13.25,1.3,28,2.4,13.45,7.46,24.48,14.79,32.55A46.93,46.93,0,0,0,155,229c6.31.9,7.25,6.39,6.24,13.68-.43,3.16-1.22,6.6-2,10.09q-.94,4.09-1.74,8.24,2.55,1.61,5.17,3.09c.79-5.17,1.8-10.32,3-15.41"/><path class="cls-6" d="M123.65,82.46a49,49,0,0,0-9.78,2.13h0q-1.38,2.41-2.66,4.9a45.35,45.35,0,0,1,14.41-3.41A5.31,5.31,0,0,1,123.65,82.46Zm10.34,0a5.3,5.3,0,0,1-2,3.67c24,1.66,42.92,21.82,43.22,46.56h0v.6h3.41v-.6C178.65,106.45,159.06,84.92,134,82.41Z"/><path class="cls-13" d="M0,369.19v-47.4H9.39v47.4Zm7.67-19.68V341.4H33.4v8.11Zm24,19.68v-47.4h9.4v47.4Z"/><path class="cls-13" d="M72.89,370.42a23.39,23.39,0,0,1-11.37-2.53,17,17,0,0,1-7.05-7.11A22.7,22.7,0,0,1,52.06,350V321.79h9.39v28.76a12.81,12.81,0,0,0,1.32,5.94,9.44,9.44,0,0,0,3.87,4,12.86,12.86,0,0,0,6.25,1.39,12.73,12.73,0,0,0,6.19-1.39,9.16,9.16,0,0,0,3.84-3.93,13,13,0,0,0,1.29-6V321.79H93.6V350a23.18,23.18,0,0,1-2.35,10.75,16.62,16.62,0,0,1-7,7.11A23.44,23.44,0,0,1,72.89,370.42Z"/><path class="cls-13" d="M104.58,369.19v-47.4H120l20.31,39.74h2.18l-1.32,1.17V321.79H150v47.4H134.54l-20.3-39.74H112l1.32-1.17v40.91Z"/><path class="cls-13" d="M184.42,370.42a27.42,27.42,0,0,1-10.95-2A23,23,0,0,1,160.71,355a25.86,25.86,0,0,1-1.63-9.12v-1.43a25,25,0,0,1,1.59-8.77,24.08,24.08,0,0,1,4.67-7.72,22.27,22.27,0,0,1,7.6-5.49,25,25,0,0,1,10.42-2.05,26.11,26.11,0,0,1,11.25,2.31,20.1,20.1,0,0,1,7.87,6.43,19.22,19.22,0,0,1,3.5,9.58h-9.46a10.2,10.2,0,0,0-2.31-5.23,12.21,12.21,0,0,0-4.66-3.35,16,16,0,0,0-6.19-1.17,15.46,15.46,0,0,0-6.12,1.17,13,13,0,0,0-4.66,3.32,14.59,14.59,0,0,0-2.94,5.12,20.18,20.18,0,0,0-1,6.63,20.79,20.79,0,0,0,1.12,7.08,15.08,15.08,0,0,0,3.18,5.29,13.48,13.48,0,0,0,5,3.31,17.82,17.82,0,0,0,6.55,1.14,17.46,17.46,0,0,0,8.47-2,12.41,12.41,0,0,0,5.29-5.17l-1.66,7.47V350.16h8.67v10.52a20.7,20.7,0,0,1-8.47,7.18A28.15,28.15,0,0,1,184.42,370.42ZM182.9,352V345.1h26.32V352Z"/><path class="cls-13" d="M217,369.19v-47.4h9.2v47.4Zm7.87-39.61v-7.79H246.2v7.79Zm0,19.41V341.2H245V349Zm0,20.2V361.4h21.9v7.79Z"/><path class="cls-13" d="M256.39,369.19V321.46h9.39v47.73ZM263,353.34v-7.46h12.3a9.14,9.14,0,0,0,4.47-1,7.38,7.38,0,0,0,2.94-2.92,8.58,8.58,0,0,0,1.06-4.29,8.71,8.71,0,0,0-1.06-4.35,7.31,7.31,0,0,0-2.94-2.92,9.14,9.14,0,0,0-4.47-1H263v-7.86h11.31a27.47,27.47,0,0,1,10.09,1.69,13.85,13.85,0,0,1,6.58,5.13,15.1,15.1,0,0,1,2.32,8.64v1a14.83,14.83,0,0,1-2.35,8.63,14.24,14.24,0,0,1-6.58,5.07,27.24,27.24,0,0,1-10.06,1.68Zm22.89,15.85-14.82-20.65h10.52l15.28,20.65Z"/><path class="cls-13" d="M304,369.19v-47.4h9.4v47.4Zm7.68-19.68V341.4h25.73v8.11Zm24,19.68v-47.4h9.39v47.4Z"/><path class="cls-13" d="M379.69,370.42a26.36,26.36,0,0,1-11.35-2.27,23.47,23.47,0,0,1-7.94-5.94,25.74,25.74,0,0,1-4.69-7.92,23.86,23.86,0,0,1-1.56-8.22v-1.43a24.89,24.89,0,0,1,1.59-8.66,23.44,23.44,0,0,1,12.77-13.45,30.49,30.49,0,0,1,22.29,0A23.44,23.44,0,0,1,403.57,336a25.11,25.11,0,0,1,1.58,8.66v1.43a24.07,24.07,0,0,1-1.55,8.22,25.77,25.77,0,0,1-4.7,7.92,23.37,23.37,0,0,1-7.94,5.94A26.11,26.11,0,0,1,379.69,370.42Zm0-8.57a16.22,16.22,0,0,0,6.64-1.3,14.58,14.58,0,0,0,5-3.6,16.14,16.14,0,0,0,3.18-5.26,18.13,18.13,0,0,0,1.09-6.27,19.21,19.21,0,0,0-1.09-6.56,15,15,0,0,0-3.18-5.19,14.52,14.52,0,0,0-5.06-3.44,18.42,18.42,0,0,0-13.29,0,14.46,14.46,0,0,0-5.07,3.44,14.93,14.93,0,0,0-3.17,5.19,19,19,0,0,0-1.09,6.56,17.9,17.9,0,0,0,1.09,6.27,16.12,16.12,0,0,0,3.17,5.26,14.46,14.46,0,0,0,5.07,3.6A16.42,16.42,0,0,0,379.69,361.85Z"/><path class="cls-13" d="M414.21,369.19V321.46h9.4v47.73Zm8.07-14.55v-8h9.4a9.56,9.56,0,0,0,4.79-1.11,7.36,7.36,0,0,0,3-3.05,10.26,10.26,0,0,0,0-9,7.17,7.17,0,0,0-3-3,9.89,9.89,0,0,0-4.79-1.07h-9.4v-8h8.6a24.76,24.76,0,0,1,10.35,2,14.58,14.58,0,0,1,6.52,5.55A15.79,15.79,0,0,1,450,337.5v1a15.79,15.79,0,0,1-2.25,8.54,14.76,14.76,0,0,1-6.52,5.58,24.44,24.44,0,0,1-10.35,2Z"/><path class="cls-13" d="M32.33,409.62l-7.91-15.1H27.9l6.68,12.94-1.3-.38h4l-1.36.38,6.27-12.94H45.5l-7.44,15.1Zm1.23,9.62V409h3.27v10.29Z"/><path class="cls-13" d="M49.8,419.24V394.52h3.34v24.72Z"/><path class="cls-13" d="M60.44,419.24V394.39h3.34v24.85Zm2.66-8.6v-2.91h5.56a5.61,5.61,0,0,0,2.94-.7,4.47,4.47,0,0,0,1.75-1.88,5.76,5.76,0,0,0,.6-2.64,5.83,5.83,0,0,0-.6-2.67A4.36,4.36,0,0,0,71.6,398a5.81,5.81,0,0,0-2.94-.68H63.1v-2.91h4.95a12.11,12.11,0,0,1,5.13,1,7,7,0,0,1,3.12,2.73,7.87,7.87,0,0,1,1.06,4.16v.54a7.91,7.91,0,0,1-1.06,4.15,6.82,6.82,0,0,1-3.12,2.74,12,12,0,0,1-5.13,1Z"/><path class="cls-13" d="M82.27,419.24V394.52h3.35v24.72Zm2.67-21.74v-3H96.67v3Zm0,10.67v-3H96v3Zm0,11.07v-3H97v3Z"/><path class="cls-13" d="M102.74,419.24V394.52h3.35v24.72Zm2.66-21.74v-3h11.74v3Zm0,10.67v-3h11v3Zm0,11.07v-3h12.08v3Z"/><path class="cls-13" d="M122.09,419.24v-4.13h4v4.13Z"/><path class="cls-13" d="M131,419.24v-4.13h4v4.13Z"/><path class="cls-13" d="M140,419.24v-4.13h4v4.13Z"/><path class="cls-13" d="M157.8,419.24V394.52h3.35v24.72Zm2.67-10.8v-3h14.87v3Zm14.19,10.8V394.52H178v24.72Z"/><path class="cls-13" d="M185.23,419.24V394.52h3.35v24.72Zm2.66-21.74v-3h11.74v3Zm0,10.67v-3h11v3Zm0,11.07v-3H200v3Z"/><path class="cls-13" d="M205.7,419.24V394.39h3.35v24.85Zm2.08-8.94v-2.95h6.69a5.3,5.3,0,0,0,2.69-.64,4.32,4.32,0,0,0,1.74-1.78,5.31,5.31,0,0,0,.62-2.59,5.36,5.36,0,0,0-.62-2.59,4.47,4.47,0,0,0-1.74-1.79,5.21,5.21,0,0,0-2.69-.66h-6.69v-2.91h6.08a12.92,12.92,0,0,1,4.77.81,6.59,6.59,0,0,1,3.17,2.51,7.63,7.63,0,0,1,1.13,4.36v.54a7.67,7.67,0,0,1-1.14,4.37,6.71,6.71,0,0,1-3.18,2.51,12.77,12.77,0,0,1-4.75.81Zm13.31,8.94-8.26-11h3.93l8.39,11Z"/><path class="cls-13" d="M229.58,419.24V394.52h3.35v24.72Zm2.66-21.74v-3H244v3Zm0,10.67v-3h11v3Zm0,11.07v-3h12.08v3Z"/><path class="cls-13" d="M262,419.24l-6.72-24.72h3.44l5.84,22.55-1.61-.81H267l-1.77.81,4.74-21.53h3.14l-5.42,23.7Zm15,0-6-23.7h3.24l5.36,21.53-1.7-.81H282l-1.74.81,5.22-22.55h3.34l-6.1,24.72Z"/><path class="cls-13" d="M293.41,419.24V394.52h3.35v24.72Zm2.66-21.74v-3h11.74v3Zm0,10.67v-3h11v3Zm0,11.07v-3h12.08v3Z"/><path class="cls-13" d="M332.47,419.85a13,13,0,0,1-5.81-1.19,10.67,10.67,0,0,1-3.87-3.08,12.65,12.65,0,0,1-2.15-4.11,14.42,14.42,0,0,1-.69-4.28v-.75a15.1,15.1,0,0,1,.7-4.47,12.35,12.35,0,0,1,2.17-4.06,10.73,10.73,0,0,1,3.82-3A14.84,14.84,0,0,1,338,395a9.45,9.45,0,0,1,3.79,3.21,10.61,10.61,0,0,1,1.7,4.88h-3.41a6.9,6.9,0,0,0-1.36-3.47,6.67,6.67,0,0,0-2.75-2.05,9.72,9.72,0,0,0-3.7-.68,9.41,9.41,0,0,0-3.89.76,7.55,7.55,0,0,0-2.78,2.14,9.38,9.38,0,0,0-1.67,3.16,12.85,12.85,0,0,0-.57,3.9,12.46,12.46,0,0,0,.57,3.79,9.19,9.19,0,0,0,1.7,3.18,8,8,0,0,0,2.85,2.18,9.38,9.38,0,0,0,4,.8,8.89,8.89,0,0,0,5.39-1.59,6.69,6.69,0,0,0,2.66-4.61h3.42a11,11,0,0,1-1.73,4.64,9.76,9.76,0,0,1-3.82,3.35A12.76,12.76,0,0,1,332.47,419.85Z"/><path class="cls-13" d="M359.94,419.85a13,13,0,0,1-5.77-1.19,11.81,11.81,0,0,1-4-3.11,13.88,13.88,0,0,1-2.34-4.13,12.88,12.88,0,0,1-.76-4.23v-.75a13.31,13.31,0,0,1,.78-4.43,12.41,12.41,0,0,1,2.39-4.08,11.87,11.87,0,0,1,4-3,15.09,15.09,0,0,1,11.36,0,12,12,0,0,1,4,3A12.56,12.56,0,0,1,372,402a13.07,13.07,0,0,1,.79,4.43v.75a12.9,12.9,0,0,1-.77,4.23,13.67,13.67,0,0,1-2.34,4.13,11.61,11.61,0,0,1-4,3.11A13,13,0,0,1,359.94,419.85Zm0-3.05a9.32,9.32,0,0,0,3.94-.81,8.79,8.79,0,0,0,3-2.22,10,10,0,0,0,1.88-3.18,10.9,10.9,0,0,0,.65-3.74,11.29,11.29,0,0,0-.65-3.86,9.56,9.56,0,0,0-1.88-3.17,8.73,8.73,0,0,0-3-2.15,10.34,10.34,0,0,0-7.88,0,8.68,8.68,0,0,0-3,2.15,9.53,9.53,0,0,0-1.87,3.17,11.06,11.06,0,0,0-.65,3.86,10.66,10.66,0,0,0,.65,3.74,10,10,0,0,0,1.87,3.18,8.73,8.73,0,0,0,3,2.22A9.28,9.28,0,0,0,359.94,416.8Z"/><path class="cls-13" d="M378.29,419.24V394.52h4.44L390.09,411h.55L398,394.52h4.46v24.72H399.1V398.15l.24.06-7.06,15.92h-4.1l-7.09-15.92.27-.06v21.09Z"/><path class="cls-13" d="M409.68,419.24V394.52H413v24.72Zm2.66-21.74v-3h11.73v3Zm0,10.67v-3h11v3Zm0,11.07v-3h12.08v3Z"/></g></g></svg>